<svg xmlns="http://www.w3.org/2000/svg" fill="none" viewBox="0 0 50 50" id="User-Circle-Single--Streamline-Flex" height="50" width="50"><desc>User Circle Single Streamline Icon: https://streamlinehq.com</desc><g id="user-circle-single--circle-geometric-human-person-single-user"><path id="Vector" fill="#8fbffa" d="M25 50c16.000000000000004 0 25 -9 25 -25s-9 -25 -25 -25 -25 9 -25 25 9 25 25 25Z" stroke-width="3.5714"></path><path id="Union" fill="#2859c5" fill-rule="evenodd" d="M33.41428571428572 18.817857142857143c0 5.385714285714286 -3.0285714285714285 8.414285714285715 -8.414285714285715 8.414285714285715s-8.414285714285715 -3.0285714285714285 -8.414285714285715 -8.414285714285715S19.614285714285714 10.403571428571428 25 10.403571428571428s8.414285714285715 3.0285714285714285 8.414285714285715 8.414285714285715ZM25 50c6.635714285714286 0 12.071428571428571 -1.5464285714285715 16.15357142857143 -4.5a16.97142857142857 16.97142857142857 0 0 0 -32.30714285714286 0C12.928571428571429 48.44642857142857 18.364285714285717 50 25 50Z" clip-rule="evenodd" stroke-width="3.5714"></path></g></svg>